PathFileType	4	(X/Y/Z)	TVC_32_BWA_08_walk_RCNL2025.trc
DataRate	CameraRate	NumFrames	NumMarkers	Units	OrigDataRate	OrigDataStartFrame	OrigNumFrames
100	100	9	27	mm	100	164	436
Frame#	Time	R_Shoulder			L_Shoulder			C7			J_Notch			R_Elbow			L_Elbow			R_Wrist			L_Wrist			R_Asis			L_Asis			R_Psis			L_Psis			Sacral			Thoracic			Sternum			R_Thigh_Lateral			R_Knee_Lateral			R_Shank_Lateral			R_Ankle_Lateral			R_Heel			R_Toe			L_Thigh_Lateral			L_Knee_Lateral			L_Shank_Lateral			L_Ankle_Lateral			L_Heel			L_Toe		
		X1	Y1	Z1	X2	Y2	Z2	X3	Y3	Z3	X4	Y4	Z4	X5	Y5	Z5	X6	Y6	Z6	X7	Y7	Z7	X8	Y8	Z8	X9	Y9	Z9	X10	Y10	Z10	X11	Y11	Z11	X12	Y12	Z12	X13	Y13	Z13	X14	Y14	Z14	X15	Y15	Z15	X16	Y16	Z16	X17	Y17	Z17	X18	Y18	Z18	X19	Y19	Z19	X20	Y20	Z20	X21	Y21	Z21	X22	Y22	Z22	X23	Y23	Z23	X24	Y24	Z24	X25	Y25	Z25	X26	Y26	Z26	X27	Y27	Z27
164	1.63000000	-802.342224	1481.729248	525.160095	-865.640808	1454.458374	154.813065	-886.070312	1524.902344	348.452179	-730.312378	1416.653442	336.648163	-748.837646	1142.236572	654.722839	-968.345459	1142.367310	53.092716	-625.923309	900.025421	605.430023	-904.959869	875.365479	39.372052	-814.896240	1012.853760	495.436462	-829.840149	1033.947266	212.832016	-1010.219910	1040.568115	415.755127	-1014.276123	1038.817993	313.499115	-1012.248016	1039.693054	364.627121	-977.051453	1272.331665	369.529266	-718.696777	1269.622192	339.594666	-918.009399	631.960815	525.100098	-882.958557	499.261047	455.664398	-937.930176	293.240356	498.296326	-941.009094	79.409531	408.371490	-995.738708	54.640270	343.678284	-795.018372	42.713001	396.904388	-775.187317	724.382874	101.258675	-694.448853	565.736267	134.856613	-743.002869	411.162903	70.106850	-738.056152	127.776779	120.606651	-800.961243	115.860832	176.199509	-599.154297	88.163582	132.035370
165	1.64000000	-796.406250	1480.699463	525.245483	-860.850464	1454.158081	155.116882	-880.775269	1524.205322	348.942352	-725.047791	1416.002319	336.564331	-737.866455	1142.199829	654.298096	-965.700623	1142.708496	54.083065	-611.723938	901.682251	604.869965	-904.749420	875.074402	41.280727	-809.247925	1012.700623	495.457245	-823.619751	1033.219971	212.504013	-1004.380981	1039.386963	415.186432	-1008.224182	1037.384644	312.943054	-1006.302582	1038.385803	364.064743	-971.718201	1271.528564	369.240601	-713.418457	1268.972778	339.452484	-913.019775	631.759155	525.137573	-879.157410	498.816254	455.427399	-935.654968	293.221069	498.082092	-940.707397	79.468864	408.119781	-995.523071	54.767433	343.453522	-794.965576	42.666515	396.925720	-767.171326	724.097656	101.848679	-684.329773	566.432617	136.200851	-727.214478	410.141846	71.700813	-712.023682	127.175781	122.833122	-774.816956	113.297028	178.174255	-571.837769	92.402534	135.254257
166	1.65000000	-790.437134	1479.574219	525.268494	-856.002869	1453.775024	155.348526	-875.451172	1523.426147	349.359253	-719.744141	1415.266235	336.418610	-727.016052	1142.121338	653.809448	-962.953918	1142.944946	55.074623	-597.789764	903.288239	604.170502	-904.274963	874.743958	43.331307	-803.531311	1012.496643	495.451935	-817.336914	1032.410522	212.131134	-998.463623	1038.094482	414.585754	-1002.105530	1035.844604	312.355011	-1000.284576	1036.969543	363.470383	-966.344299	1270.637085	368.878937	-708.103210	1268.244385	339.236908	-907.881531	631.489868	525.153076	-875.185730	498.315613	455.164612	-933.257263	293.158600	497.841156	-940.364929	79.529343	407.831604	-995.304993	54.906078	343.207794	-794.895813	42.623974	396.916504	-759.308594	723.586853	102.487518	-674.427246	566.937622	137.642288	-711.882568	409.093323	73.517555	-686.691101	126.907822	125.393852	-749.293396	111.211281	180.514908	-545.423584	96.819832	138.836624
167	1.66000000	-784.429321	1478.356567	525.225830	-851.094360	1453.302979	155.507004	-870.095642	1522.564087	349.698303	-714.397766	1414.444336	336.209747	-716.287598	1141.996216	653.258545	-960.107056	1143.070923	56.064079	-584.123260	904.831665	603.336700	-903.534851	874.366058	45.510193	-797.738281	1012.231812	495.410980	-810.994690	1031.520142	211.715118	-992.473267	1036.698730	413.951477	-995.925598	1034.201660	311.737701	-994.199432	1035.450195	362.844589	-960.925049	1269.655884	368.446808	-702.745728	1267.436157	338.949432	-902.580811	631.144226	525.147400	-871.029175	497.754608	454.876007	-930.727600	293.048096	497.572754	-939.980896	79.591560	407.505615	-995.086548	55.058292	342.939240	-794.811035	42.584915	396.874542	-751.561096	722.841736	103.197731	-664.706238	567.253784	139.214630	-697.034424	408.023651	75.547890	-662.132019	126.930931	128.203873	-724.470276	109.546021	183.144485	-519.966919	101.343857	142.651062
168	1.67000000	-778.379456	1477.051758	525.115112	-846.122925	1452.737305	155.591812	-864.706299	1521.619995	349.955353	-709.005127	1413.537231	335.936707	-705.684326	1141.820557	652.645630	-957.160034	1143.080933	57.047668	-570.724579	906.303009	602.376129	-902.529236	873.931641	47.803106	-791.862488	1011.895752	495.325043	-804.594360	1030.548828	211.256729	-986.413757	1035.208130	413.281616	-989.690430	1032.461304	311.092194	-988.052094	1033.834717	362.186905	-955.455627	1268.584717	367.946411	-697.340210	1266.547974	338.592133	-897.107666	630.714661	525.122192	-866.678406	497.128723	454.562744	-928.058472	292.884979	497.278290	-939.556274	79.655800	407.142822	-994.869873	55.226402	342.647644	-794.714844	42.548687	396.799255	-743.881775	721.860657	103.997063	-655.131714	567.384399	140.945297	-682.681274	406.937561	77.775009	-638.411926	127.201225	131.180145	-700.420837	108.240807	185.984650	-495.514587	105.902283	146.572601
169	1.68000000	-772.285950	1475.666382	524.934509	-841.087952	1452.074341	155.602859	-859.280823	1520.594727	350.126770	-703.562927	1412.547363	335.598724	-695.211121	1141.591309	651.970459	-954.111267	1142.969849	58.021431	-557.592285	907.695465	601.297974	-901.259491	873.431488	50.194982	-785.899902	1011.479431	495.186310	-798.133911	1029.495728	210.756256	-980.287170	1033.630981	412.573914	-983.405334	1030.630005	310.417389	-981.846252	1032.130493	361.495651	-949.930664	1267.424438	367.379547	-691.880554	1265.581299	338.167572	-891.458008	630.195374	525.079468	-862.130127	496.433716	454.227905	-925.245789	292.665344	496.961639	-939.094055	79.722137	406.746765	-994.656860	55.412945	342.334778	-794.611755	42.514462	396.691925	-736.218445	720.649536	104.896721	-645.671265	567.332947	142.851837	-668.817322	405.837982	80.173988	-615.587036	127.672707	134.246185	-677.211060	107.233665	188.959534	-472.104401	110.423058	150.491028
170	1.69000000	-766.149292	1474.208862	524.682800	-835.990540	1451.312500	155.540176	-853.816467	1519.490723	350.209473	-698.067627	1411.478516	335.195160	-684.873962	1141.306885	651.232544	-950.957642	1142.734009	58.981476	-544.723389	909.005005	600.113037	-899.727814	872.856964	52.669790	-779.849182	1010.975342	494.989929	-791.607422	1028.360107	210.214188	-974.093201	1031.975098	411.825745	-977.073914	1028.716309	309.709869	-975.583557	1030.345703	360.767807	-944.344238	1266.177246	366.747559	-686.359985	1264.538940	337.678680	-885.635376	629.583130	525.021484	-857.388062	495.665924	453.876617	-922.289917	292.386475	496.628998	-938.599243	79.790497	406.323517	-994.449097	55.620640	342.004456	-794.507263	42.481236	396.555695	-728.518372	719.221924	105.900276	-636.298157	567.102966	144.939590	-655.420898	404.725616	82.712173	-593.702698	128.296829	137.335785	-654.898926	106.461960	191.999023	-449.764404	114.835274	154.317947
171	1.70000000	-759.971558	1472.689209	524.359131	-830.832581	1450.452026	155.403824	-848.310059	1518.311035	350.200928	-692.515503	1410.336792	334.725433	-674.679932	1140.966309	650.431641	-947.694702	1142.370850	59.924206	-532.113922	910.230591	598.832703	-897.936249	872.200745	55.210456	-773.711670	1010.378418	494.734772	-785.004822	1027.141479	209.631836	-967.829468	1030.248413	411.034027	-970.696594	1026.730591	308.963654	-969.263031	1028.489502	359.998840	-938.689697	1264.846436	366.051392	-680.771545	1263.425049	337.128754	-879.651550	628.877808	524.950684	-852.462891	494.822754	453.516113	-919.196655	292.047394	496.288330	-938.078613	79.860809	405.881500	-994.247925	55.852356	341.662537	-794.407166	42.447884	396.395477	-720.733154	717.597961	107.003395	-626.993591	566.697266	147.200623	-642.457520	403.598694	85.350403	-572.793579	129.022247	140.395645	-633.533752	105.862885	195.040909	-428.513153	119.070045	157.991852
172	1.71000000	-753.756287	1471.117798	523.962830	-825.616394	1449.495117	155.193817	-842.757568	1517.060059	350.099152	-686.902527	1409.129517	334.189178	-664.636353	1140.570679	649.568359	-944.316833	1141.879639	60.846420	-519.759338	911.374115	597.468658	-895.886230	871.457672	57.798771	-767.490784	1009.686646	494.423889	-778.311890	1025.840576	209.011810	-961.491760	1028.459595	410.195160	-964.269714	1024.686035	308.170044	-962.880737	1026.572815	359.182602	-932.959534	1263.437012	365.291565	-675.107544	1262.246094	336.521301	-873.527100	628.082703	524.869263	-847.372253	493.903198	453.155487	-915.977356	291.649231	495.948761	-937.540222	79.933167	405.430969	-994.054382	56.111118	341.316650	-794.317078	42.413174	396.217712	-712.823303	715.802795	108.194237	-617.748047	566.117737	149.614166	-629.884216	402.452942	88.044991	-552.883179	129.794724	143.386520	-613.156799	105.373871	198.032089	-408.360291	123.061386	161.480606
